<?xml version="1.0" standalone="no"?>
<!DOCTYPE svg PUBLIC "-//W3C//DTD SVG 20010904//EN"
 "http://www.w3.org/TR/2001/REC-SVG-20010904/DTD/svg10.dtd">
<svg version="1.0" xmlns="http://www.w3.org/2000/svg"
 width="1024.000000pt" height="1024.000000pt" viewBox="0 0 1024.000000 1024.000000"
 preserveAspectRatio="xMidYMid meet">

<g transform="translate(0.000000,1024.000000) scale(0.100000,-0.100000)"
fill="#000000" stroke="none">
<path d="M5087 10083 c18 -2 50 -2 70 0 21 2 7 4 -32 4 -38 0 -55 -2 -38 -4z"/>
<path d="M4970 7417 c-38 -13 -403 -216 -890 -497 -899 -517 -913 -526 -980
-652 -62 -116 -60 -71 -60 -1148 0 -1057 -1 -1030 51 -1136 13 -27 53 -79 89
-116 62 -64 108 -92 895 -545 485 -279 857 -487 895 -500 89 -31 210 -31 300
0 39 13 404 218 899 502 933 538 908 520 984 673 l42 85 0 1026 c0 966 -1
1029 -18 1080 -24 71 -74 148 -131 202 -61 59 -1699 1003 -1787 1030 -86 27
-205 25 -289 -4z m255 -226 c102 -47 1634 -937 1668 -969 20 -20 47 -57 60
-82 l22 -45 0 -975 0 -975 -27 -50 c-14 -27 -41 -64 -60 -81 -35 -32 -1635
-957 -1688 -976 -17 -5 -61 -9 -98 -6 l-67 3 -825 474 c-893 514 -903 520
-931 617 -12 41 -14 205 -14 1009 l0 960 27 50 c14 28 41 64 60 81 30 28 1598
938 1672 970 46 20 153 17 201 -5z"/>
<path d="M4520 5230 l0 -1010 170 0 170 0 0 1010 0 1010 -170 0 -170 0 0
-1010z"/>
<path d="M5271 5385 l-251 -335 0 -78 0 -79 252 -336 253 -337 208 0 c164 0
207 3 201 13 -5 6 -135 175 -291 375 l-282 363 262 337 c144 185 275 354 291
375 l28 37 -210 0 -210 0 -251 -335z"/>
<path d="M7114 2494 c-18 -14 -18 -15 4 -4 12 6 22 13 22 15 0 8 -5 6 -26 -11z"/>
<path d="M7065 2470 c-3 -6 1 -7 9 -4 18 7 21 14 7 14 -6 0 -13 -4 -16 -10z"/>
<path d="M7025 2440 c4 -6 11 -8 16 -5 14 9 11 15 -7 15 -8 0 -12 -5 -9 -10z"/>
<path d="M6989 2423 c-13 -16 -12 -17 4 -4 16 13 21 21 13 21 -2 0 -10 -8 -17
-17z"/>
<path d="M6940 2400 c-8 -5 -10 -10 -5 -10 6 0 17 5 25 10 8 5 11 10 5 10 -5
0 -17 -5 -25 -10z"/>
<path d="M6870 2360 c-8 -5 -10 -10 -5 -10 6 0 17 5 25 10 8 5 11 10 5 10 -5
0 -17 -5 -25 -10z"/>
<path d="M6715 2270 c-3 -5 -2 -10 4 -10 5 0 13 5 16 10 3 6 2 10 -4 10 -5 0
-13 -4 -16 -10z"/>
<path d="M6620 2209 c0 -5 5 -7 10 -4 6 3 10 8 10 11 0 2 -4 4 -10 4 -5 0 -10
-5 -10 -11z"/>
<path d="M5310 1500 c-23 -7 -23 -8 -3 -9 12 -1 25 4 28 9 3 6 5 10 3 9 -2 -1
-14 -5 -28 -9z"/>
<path d="M5224 1475 c-10 -8 -23 -14 -29 -15 -5 0 -3 5 5 10 10 7 -16 10 -82
10 -57 0 -98 -4 -98 -10 0 -5 -8 -7 -17 -3 -15 5 -16 3 -6 -7 10 -11 15 -11
28 0 13 11 15 10 10 -3 -4 -8 -1 -18 6 -23 7 -4 10 -3 6 3 -7 11 82 11 101 -1
7 -4 12 -2 12 3 0 6 5 11 11 11 6 0 9 -6 6 -14 -4 -10 0 -12 15 -8 15 4 17 7
6 13 -10 7 -9 9 4 9 9 0 18 -4 20 -10 2 -5 18 -1 36 10 34 21 35 40 3 40 -9 0
-26 -7 -37 -15z"/>
</g>
</svg>
